<?xml version="1.0" encoding="UTF-8"?>
<!DOCTYPE svg PUBLIC "-//W3C//DTD SVG 1.1//EN" "http://www.w3.org/Graphics/SVG/1.1/DTD/svg11.dtd">
<!-- Creator: CorelDRAW 2021 (64-Bit) -->
<svg xmlns="http://www.w3.org/2000/svg" xml:space="preserve" width="565.125mm" height="266.347mm" version="1.1" style="shape-rendering:geometricPrecision; text-rendering:geometricPrecision; image-rendering:optimizeQuality; fill-rule:evenodd; clip-rule:evenodd"
viewBox="0 0 56512.5 26634.7"
 xmlns:xlink="http://www.w3.org/1999/xlink"
 xmlns:xodm="http://www.corel.com/coreldraw/odm/2003">
 <defs>
  <style type="text/css">
   <![CDATA[
    .str1 {stroke:#BDBFC1;stroke-width:20;stroke-miterlimit:22.9256}
    .str2 {stroke:#F7ADAF;stroke-width:20;stroke-miterlimit:22.9256}
    .str0 {stroke:#D3D7DC;stroke-width:20;stroke-miterlimit:22.9256}
    .str3 {stroke:#509FE4;stroke-width:20;stroke-miterlimit:22.9256}
    .fil3 {fill:none}
    .fil5 {fill:#F7ADAF}
    .fil1 {fill:#D7DDE4}
    .fil2 {fill:#C3C8CF}
    .fil4 {fill:#164E80}
    .fil0 {fill:#2B7DC4}
    .fil6 {fill:#509FE4}
   ]]>
  </style>
    <clipPath id="id0">
     <path d="M18932.84 7453.5c8043.75,-979.1 11520.88,-452.41 18028.18,240.5 -15.08,4609.34 -343.34,8599.65 -991.05,13163.79 -5242,-180.76 -10910.37,-39.6 -16152.35,-220.36 -662.15,-3660.41 -899.84,-7625.6 -884.78,-13183.93z"/>
    </clipPath>
 </defs>
 <g id="Capa_x0020_1">
  <metadata id="CorelCorpID_0Corel-Layer"/>
  <g id="_2812699159936">
   <path class="fil0" d="M17359.38 5871.23c9426.18,-1147.38 13503.8,-653.11 21129.47,158.88 -17.67,5401.52 -406,10697.12 -1165.04,16045.68 -6142.9,-211.83 -12785.47,-46.42 -18928.37,-258.24 -775.93,-4289.52 -1053.71,-9432.72 -1036.06,-15946.32z"/>
   <path class="fil1" d="M18932.84 7453.5c8043.75,-979.1 11520.88,-452.41 18028.18,240.5 -15.08,4609.34 -343.34,8599.65 -991.05,13163.79 -5242,-180.76 -10910.37,-39.6 -16152.35,-220.36 -662.15,-3660.41 -899.84,-7625.6 -884.78,-13183.93z"/>
   <g style="clip-path:url(#id0)">
    <g>
     <path id="_1" class="fil2 str0" d="M19265.17 7978.52c3389.44,-579.63 4316.43,-629.7 7070.4,-626.81l-6518 1050.65 30.13 6407.5 -158.88 0 -423.65 -6831.34z"/>
     <path class="fil2" d="M42068.95 3875.78l-6572.74 0c1719.8,5505.61 410.84,13037.05 -370.49,18408.84l6943.23 8.67 0 -18417.51z"/>
    </g>
   </g>
   <path class="fil3 str1" d="M18932.84 7453.5c8043.75,-979.1 11520.88,-452.41 18028.18,240.5 -15.08,4609.34 -343.34,8599.65 -991.05,13163.79 -5242,-180.76 -10910.37,-39.6 -16152.35,-220.36 -662.15,-3660.41 -899.84,-7625.6 -884.78,-13183.93z"/>
   <path class="fil4" d="M38288.54 12491.43c931.71,-123.56 1992.9,527.42 2130.27,1092.28 27.45,2248.17 -474.66,4761.13 -1082.68,6479.74 -616.92,277.4 -867.72,501.24 -1802.37,460.9l754.78 -8032.92z"/>
   <path class="fil4" d="M17463.99 12380.71c-931.71,-123.56 -1992.9,527.42 -2130.27,1092.28 -27.45,2248.17 474.66,4761.13 1082.68,6479.74 616.92,277.4 867.72,501.23 1802.37,460.89l-754.78 -8032.91z"/>
   <ellipse class="fil5 str2" cx="21882.73" cy="16968.98" rx="568.53" ry="305.07"/>
   <ellipse class="fil5 str2" cx="33986.35" cy="16549.8" rx="568.53" ry="305.07"/>
   <path class="fil6 str3" d="M29541.91 15010.55c13.97,77.27 21.31,156.93 21.31,238.32 0,723.84 -577.91,1310.63 -1290.81,1310.63 -712.88,0 -1290.8,-586.79 -1290.8,-1310.63 0,-81.39 7.32,-161.03 21.29,-238.32 1006.62,0 1899.92,0 2539.01,0z"/>
   <path class="fil6 str3" d="M22018.78 16004.46c-15.49,-76.98 -24.37,-156.47 -25.96,-237.84 -14.17,-723.72 552.15,-1321.71 1264.91,-1335.66 712.76,-13.95 1302.04,561.43 1316.2,1285.15 1.59,81.36 -4.16,161.13 -16.64,238.67l-229.68 4.49c-117.08,-581.49 -542.03,-1008.98 -1039.67,-999.24 -497.65,9.73 -905.53,453.52 -999.78,1039.15l-269.38 5.28z"/>
   <path class="fil6 str3" d="M31562.68 15830.95c-15.49,-76.98 -24.37,-156.47 -25.96,-237.84 -14.17,-723.72 552.15,-1321.71 1264.91,-1335.66 712.76,-13.94 1302.04,561.43 1316.2,1285.15 1.59,81.37 -4.16,161.13 -16.64,238.67l-229.68 4.49c-117.08,-581.49 -542.03,-1008.98 -1039.67,-999.24 -497.65,9.74 -905.53,453.53 -999.78,1039.16l-269.38 5.27z"/>
  </g>
 </g>
</svg>
