<?xml version="1.0" encoding="UTF-8"?>
<!DOCTYPE svg PUBLIC "-//W3C//DTD SVG 1.1//EN" "http://www.w3.org/Graphics/SVG/1.1/DTD/svg11.dtd">
<!-- Creator: CorelDRAW 2021 (64-Bit) -->
<svg xmlns="http://www.w3.org/2000/svg" xml:space="preserve" width="565.125mm" height="266.347mm" version="1.1" style="shape-rendering:geometricPrecision; text-rendering:geometricPrecision; image-rendering:optimizeQuality; fill-rule:evenodd; clip-rule:evenodd"
viewBox="0 0 56512.5 26634.7"
 xmlns:xlink="http://www.w3.org/1999/xlink"
 xmlns:xodm="http://www.corel.com/coreldraw/odm/2003">
 <defs>
  <style type="text/css">
   <![CDATA[
    .fil0 {fill:#FEFEFE}
   ]]>
  </style>
 </defs>
 <g id="Capa_x0020_1">
  <metadata id="CorelCorpID_0Corel-Layer"/>
  <g id="_2812486078864">
   <path class="fil0" d="M25804.17 8499.17c-2457.5,536.77 -1605.47,4111.21 756.08,3595.63 873.73,-190.76 1626.15,-1069.86 1404.3,-2171.62 -177.92,-883.56 -1076.61,-1660.74 -2160.38,-1424.01z"/>
   <path class="fil0" d="M17641.19 11537.07c50.63,78.58 0.78,60.78 135.95,124.92 39.27,18.64 127.44,34.32 184.54,44.69 146.09,26.59 291.02,57.43 432.17,77.93l963.96 179.73c127.12,355.61 206.59,714.07 353.45,1047.94 99.19,225.51 414.16,777.59 448.25,926.11 -38.73,307.53 -1185.42,1226.49 -847.37,1780.11 78.79,129.03 1261.42,1310.03 1404.01,1412.68 364.38,262.35 737.22,-97.33 964.09,-259.34 1144.73,-817.51 639.55,-599.7 1766.25,-124.91 495.96,208.98 978.69,234.31 1054.49,429.45 23.53,60.59 11.34,26.12 26.59,93.07 14.17,62.21 24.08,143.98 33.79,199.15 22.09,125.58 44.37,234.12 68.02,362.16 240.09,1299.39 89.77,1157.3 1547.15,1157.33 576.23,0.01 1246.07,152.36 1379.83,-417.75 94.53,-402.9 129.47,-1172.73 301.66,-1479.65 334.47,-130.17 684.87,-209.16 1037,-355.29 1197.03,-496.8 549.02,-675.67 1765.81,148.24 258.71,175.17 568.29,511.49 966.65,237.88 128.01,-87.92 1332.71,-1305.16 1394.82,-1421.87 100.63,-189.16 79.78,-377.04 -16.88,-534.74l-844.35 -1226.52c51.93,-195.43 338.81,-666.46 456.71,-950.15 157.3,-378.52 275.54,-833.47 331.35,-960.11 77.55,-175.96 1094.07,-221.37 1533.16,-346.74 507.85,-145 368.15,-831.61 368.15,-1379.74 0,-566.83 142.31,-1255.94 -396.51,-1395.33 -473.79,-122.58 -1012.99,-160.77 -1473.2,-280.9 -91.03,-139.66 -264.03,-795.82 -372.36,-1042.26l-449.44 -918.23c385.58,-656.05 1045.25,-1243.25 901.82,-1683.81 -51.21,-157.32 -116.32,-186.71 -222.55,-284.83 -1542.3,-1424.37 -1138.35,-1704.85 -2417.12,-826.19 -947.44,650.99 -369.99,465.36 -1574.28,-32.15 -343.89,-142.07 -649.22,-211.45 -988.78,-332.8 -158.15,-290.44 -200.16,-1142.8 -312.08,-1530.04 -154.31,-533.94 -938.19,-362.84 -1454.22,-357.96 -549.44,5.19 -1203.01,-203.67 -1336.73,459.04 -89.92,445.67 -156.77,1118.16 -286.77,1431.08l-325.33 112.43c-635.7,98.02 -1188.3,511.3 -1603.1,677.83 -291.58,-138.31 -988.64,-701.74 -1271.02,-858.66 -468.85,-260.54 -827.37,265.46 -1275,718.89 -444.2,449.97 -944,776.75 -690.95,1246.58 218.63,405.94 619.3,842.69 860.19,1260.59 -64.39,194.33 -255.82,490.32 -359.22,706.62 -118.82,248.56 -201.71,497.09 -304.06,764.55 -14.4,97.16 -41.78,159.66 -71.38,264.03l-95.15 229.48c-330.04,77.29 -700.33,133.75 -1043.01,196.64 -357.01,65.5 -771.65,91.58 -779.27,459.87l-27.52 54.88c-44.54,135.93 -16.75,1084.45 -19.98,1508.23 -2.02,265.36 -41.29,355.8 49.94,457.83 1.68,100.09 -24.31,54.47 32.99,158.86 80.08,145.97 17.31,54.05 94.84,71.15zm11212.49 1323.95c-71.73,82.85 -115.43,127.14 -200.51,191.23 -139.96,105.41 -203.11,183.11 -347.22,277.59 -787.95,516.6 -1554.17,776.87 -2578.4,658.62 -3643.29,-420.64 -4508.64,-5368.52 -1236.26,-7013.83 1451.44,-729.77 2864.98,-409.99 4042.15,461.78 270.87,200.61 623.25,623.42 815.3,943.73 917.24,1529.82 614.44,3199.21 -495.06,4480.88z"/>
  </g>
 </g>
</svg>
