<svg width="28" height="28" viewBox="0 0 28 28" fill="none" xmlns="http://www.w3.org/2000/svg">
<path d="M0 8.155V3.54725C0 3.54725 1.386 0 13.6999 0C26.0146 0 27.9037 3.21037 27.9037 3.54725V8.13225C27.9037 8.13225 26.6394 11.7416 14.4077 11.7416C2.17612 11.7416 0 8.87075 0 8.155ZM0.266875 19.4688C0.266875 19.4688 2.05537 22.6992 14.028 22.6992C26.0006 22.6992 27.7043 19.4443 27.7043 19.4443C27.7043 19.4443 28 19.5309 28 19.9973V24.3723C28 24.3723 26.6551 28 13.9685 28C1.28188 28 0.035875 24.3399 0.035875 24.3399V20.0375C0.035875 19.5282 0.266875 19.4688 0.266875 19.4688ZM0.266875 11.2717C0.266875 11.2717 2.05537 14.5022 14.028 14.5022C26.0006 14.5022 27.7043 11.2473 27.7043 11.2473C27.7043 11.2473 28 11.3339 28 11.8003V16.1761C28 16.1761 26.6551 19.803 13.9685 19.803C1.28188 19.803 0.035875 16.1438 0.035875 16.1438V11.8405C0.035875 11.3304 0.266875 11.2717 0.266875 11.2717Z" fill="#509EE3"/>
</svg>

