<svg width="37" height="37" viewBox="0 0 37 37" fill="none" xmlns="http://www.w3.org/2000/svg">
<path d="M29.4844 0.984375C28.875 0.984375 28.3242 1.35547 28.0938 1.92188C27.8633 2.48828 28 3.13672 28.4375 3.5625L30.8789 6H29.5C17.6445 6 8 15.6445 8 27.5C7.99219 28.0391 8.27734 28.543 8.74219 28.8164C9.21094 29.0898 9.78906 29.0898 10.2578 28.8164C10.7227 28.543 11.0078 28.0391 11 27.5C11 17.2656 19.2656 9 29.5 9H30.8789L28.4375 11.4375C28.0469 11.8164 27.8906 12.375 28.0273 12.8984C28.1641 13.4258 28.5742 13.8359 29.1016 13.9727C29.625 14.1094 30.1836 13.9531 30.5625 13.5625L35.4336 8.6875C35.8047 8.40625 36.0195 7.96094 36.0195 7.49609C36.0156 7.02734 35.7969 6.58594 35.4219 6.30078L30.5625 1.4375C30.2773 1.14844 29.8906 0.984375 29.4844 0.984375ZM6.5 1C2.92969 1 0 3.92969 0 7.5V30.5C0 34.0703 2.92969 37 6.5 37H29.5C33.0703 37 36 34.0703 36 30.5V22.5C36.0078 21.9609 35.7227 21.457 35.2578 21.1836C34.7891 20.9102 34.2109 20.9102 33.7422 21.1836C33.2773 21.457 32.9922 21.9609 33 22.5V30.5C33 32.4492 31.4492 34 29.5 34H6.5C4.55078 34 3 32.4492 3 30.5V7.5C3 5.55078 4.55078 4 6.5 4H14.5C15.0391 4.00781 15.543 3.72266 15.8164 3.25781C16.0898 2.78906 16.0898 2.21094 15.8164 1.74219C15.543 1.27734 15.0391 0.992188 14.5 1H6.5Z" fill="white"/>
</svg>
