<?xml version="1.0" encoding="UTF-8"?>
<!DOCTYPE svg PUBLIC "-//W3C//DTD SVG 1.1//EN" "http://www.w3.org/Graphics/SVG/1.1/DTD/svg11.dtd">
<!-- Creator: CorelDRAW 2021 (64-Bit) -->
<svg xmlns="http://www.w3.org/2000/svg" xml:space="preserve" width="565.125mm" height="266.347mm" version="1.1" style="shape-rendering:geometricPrecision; text-rendering:geometricPrecision; image-rendering:optimizeQuality; fill-rule:evenodd; clip-rule:evenodd"
viewBox="0 0 56512.5 26634.7"
 xmlns:xlink="http://www.w3.org/1999/xlink"
 xmlns:xodm="http://www.corel.com/coreldraw/odm/2003">
 <defs>
  <style type="text/css">
   <![CDATA[
    .fil0 {fill:#FEFEFE}
   ]]>
  </style>
 </defs>
 <g id="Capa_x0020_1">
  <metadata id="CorelCorpID_0Corel-Layer"/>
  <g id="_2812878299760">
   <path class="fil0" d="M22614.8 5052.39c-708.1,203.88 -486.79,1340.66 -486.79,2032.66 0,2909.15 -653.19,2350.03 5167.26,2350.03 1249.67,0 9409.41,121.68 9894.33,-41.47 632.26,-212.7 439.64,-1321.94 439.64,-2011.21 0,-2941.85 611.69,-2364.78 -5130.22,-2364.78 -1120.05,0 -9534.73,-65.87 -9884.22,34.77z"/>
   <path class="fil0" d="M22644.28 11534.52c-415.36,116.26 -496.13,227.94 -518.11,750 -17,404.17 1.84,858.09 1.84,1268.04 0,2920.25 -677.19,2354.96 5167.26,2354.96 1208.2,0 9445.55,110.93 9893.95,-47.05 627.14,-220.95 440.02,-1258.67 440.02,-2010.54 0,-653.2 163.31,-1935.01 -290.21,-2238.96 -330.78,-221.66 -8741.83,-111.09 -9820.75,-111.09 -801.89,0 -4405.13,-96.6 -4874,34.64z"/>
   <path class="fil0" d="M22128.01 18830.67l0 2676.21c0,623.03 249.37,877.99 855.58,877.99l-223.03 0c4658.6,0 9317.2,0 13975.81,0 661.28,0 892.87,-210.39 892.87,-877.99l0 -2676.21c0,-584.01 -220.91,-853.06 -818.54,-853.06l-13808.52 0c-676.11,0 -874.17,192.81 -874.17,853.06z"/>
   <path class="fil0" d="M18486.98 18040.91c-2790.55,695.12 -1802.99,4930.07 1008.56,4285.93 2888.05,-661.68 1821.95,-4990.98 -1008.56,-4285.93z"/>
   <path class="fil0" d="M18400.71 11606.19c-2831.86,836.07 -1531.51,4981.45 1204.23,4221.78 2767.91,-768.6 1656.92,-5066.47 -1204.23,-4221.78z"/>
   <path class="fil0" d="M18633.82 5065.01c-2996.19,623.31 -1979.01,4900.45 845.26,4319.69 1050.55,-216.04 1976.9,-1298.24 1688.59,-2642.14 -213.91,-997.05 -1270.74,-1940.32 -2533.85,-1677.55z"/>
  </g>
 </g>
</svg>
