<?xml version="1.0" encoding="UTF-8"?>
<!DOCTYPE svg PUBLIC "-//W3C//DTD SVG 1.1//EN" "http://www.w3.org/Graphics/SVG/1.1/DTD/svg11.dtd">
<!-- Creator: CorelDRAW 2021 (64-Bit) -->
<svg xmlns="http://www.w3.org/2000/svg" xml:space="preserve" width="210mm" height="297mm" version="1.1" style="shape-rendering:geometricPrecision; text-rendering:geometricPrecision; image-rendering:optimizeQuality; fill-rule:evenodd; clip-rule:evenodd"
viewBox="0 0 21000 29700"
 xmlns:xlink="http://www.w3.org/1999/xlink"
 xmlns:xodm="http://www.corel.com/coreldraw/odm/2003">
 <defs>
  <style type="text/css">
   <![CDATA[
    .fil2 {fill:black}
    .fil3 {fill:#939393}
    .fil4 {fill:#EC000F}
    .fil0 {fill:#ED1C24}
    .fil5 {fill:#F6A8A9}
    .fil1 {fill:white}
   ]]>
  </style>
 </defs>
 <g id="Capa_x0020_1">
  <metadata id="CorelCorpID_0Corel-Layer"/>
  <g id="_2727253232640">
   <path class="fil0" d="M12504.28 12932.21l542.4 0c716.92,0 1096.15,320.26 1090.15,1035.13 -5.74,685.13 -417.21,987.5 -1090.15,987.5l-540.42 0 -1.98 -2022.63zm-1884.78 3.47c605.86,-23.01 1367.37,-98.24 1527.59,445.89 91.26,309.92 -36.11,625.13 -198.62,755.9 -251.25,202.18 -477.2,120.33 -793.34,192.44l0.32 625.59 -533.99 -5.07 -1.96 -2014.75zm5097.66 823.7c-0.19,79.25 2.46,162.33 2.85,242.99 0.18,36.39 1.53,103.89 -3.3,137.78 -9.09,63.81 -10.57,40.01 -28.46,72.23l-649.85 -2.55 0.27 741.33 -532.26 -4.58 -4.53 -2013.62 1319 9.02 -0.91 389.71 -7.8 60.27c-126.21,81.93 -567.04,43.59 -719.38,43.59l0 275c105.64,0 211.83,1.05 317.41,-0.27 384.87,-4.83 258.76,2.08 306.96,49.1zm-5522.84 1668.08l385.17 0.14 5220.73 -0.47 388.42 0.47 675.01 -2.83c0,-733.03 0,-1466.06 0,-2199.09 0,-523.27 75.59,-794.25 -118.7,-982.12 -151.25,-146.25 -405.48,-438.61 -556.76,-538.31l-1.88 654.1 -394.04 -0.31 -5204.42 2.24 -393.27 -4.22 -1.51 -644.23c-155.51,106.92 -399.12,387.3 -555.66,537.72 -196.12,188.44 -119.84,439.83 -119.84,975.13 0,724.59 20,1478.06 -3.68,2199.09l680.43 2.69z"/>
   <polygon class="fil1" points="10587.85,12361.28 15792.27,12359.04 15798.62,11003.19 13930.37,10986.31 13927.32,9133.94 10580.13,9134.3 "/>
   <polygon class="fil1" points="15800.22,15427.13 10579.49,15427.6 10580.17,16821.12 15798.2,16823.37 "/>
   <path class="fil2" d="M10193.07 11712.83l1.51 644.23 393.27 4.22 -7.72 -3226.98 3347.19 -0.36c37.37,47.75 19.46,-47.22 38.01,103.89l-2.39 1730.08c143.34,0 1712.04,-42.78 1835.68,35.28l-6.35 1355.85 394.04 0.31 1.88 -654.1c2.57,-198.71 0.07,-397.54 1.29,-596.29 2,-329.02 48.26,-330.48 -135.9,-501.78l-1863.15 -1861.77 -3996.57 0 -0.79 2967.42z"/>
   <polygon class="fil2" points="10193.86,17212.07 16189.29,17212.07 16188.64,15427.6 15800.22,15427.13 15798.2,16823.37 10580.17,16821.12 10579.49,15427.6 10194.32,15427.46 "/>
   <path class="fil1" d="M13039.7 13358c402.61,24.93 568.93,181.81 556.78,609.19 -11.75,413.45 -148.91,536.8 -553.81,556.4l-2.97 -1165.59zm-533.44 1596.84l540.42 0c672.94,0 1084.41,-302.37 1090.15,-987.5 6,-714.87 -373.23,-1035.13 -1090.15,-1035.13l-542.4 0 1.98 2022.63z"/>
   <path class="fil1" d="M11154.27 13374.97c170.09,-39.96 336.7,-4.67 461.75,44.77 117.62,396.5 -59.83,514.81 -459.67,460.1l-2.08 -504.87zm-532.81 1575.46l533.99 5.07 -0.32 -625.59c316.14,-72.11 542.09,9.74 793.34,-192.44 162.51,-130.77 289.88,-445.98 198.62,-755.9 -160.22,-544.13 -921.73,-468.9 -1527.59,-445.89l1.96 2014.75z"/>
   <path class="fil1" d="M15688.25 14212.38l0 -434.64 -645.29 0.82c-39.7,-128.34 -33.56,-273.26 -8.34,-399.37 251.93,-64.57 537.39,27.85 785.35,-47.5l0.91 -389.71 -1319 -9.02 4.53 2013.62 532.26 4.58 -0.27 -741.33 649.85 2.55z"/>
   <path class="fil0" d="M13042.67 14523.59c404.9,-19.6 542.06,-142.95 553.81,-556.4 12.15,-427.38 -154.17,-584.26 -556.78,-609.19l2.97 1165.59z"/>
   <path class="fil0" d="M11156.35 13879.84c399.84,54.71 577.29,-63.6 459.67,-460.1 -125.05,-49.44 -291.66,-84.73 -461.75,-44.77l2.08 504.87z"/>
   <path class="fil3" d="M15798.62 11003.19c-123.64,-78.06 -1692.34,-35.28 -1835.68,-35.28l2.39 -1730.08c-18.55,-151.11 -0.64,-56.14 -38.01,-103.89l3.05 1852.37 1868.25 16.88z"/>
   <path class="fil4" d="M15717.16 13759.38c-48.2,-47.02 77.91,-53.93 -306.96,-49.1 -105.58,1.32 -211.77,0.27 -317.41,0.27l0 -275c152.34,0 593.17,38.34 719.38,-43.59l-759.38 5.28 1.79 354.38 662.58 7.76z"/>
   <path class="fil5" d="M15688.25 14212.38c17.89,-32.22 19.37,-8.42 28.46,-72.23 4.83,-33.89 3.48,-101.39 3.3,-137.78 -0.39,-80.66 -3.04,-163.74 -2.85,-242.99l-662.58 -7.76 -1.79 -354.38 759.38 -5.28 7.8 -60.27c-247.96,75.35 -533.42,-17.07 -785.35,47.5 -25.22,126.11 -31.36,271.03 8.34,399.37l645.29 -0.82 0 434.64z"/>
  </g>
 </g>
</svg>
