<svg width="18" height="18" viewBox="0 0 18 18" fill="none" xmlns="http://www.w3.org/2000/svg">
<g clip-path="url(#clip0_303_405)">
<path d="M6.7995 0.56025C6.7995 0.250875 7.04756 0 7.36537 0H10.8467C11.1589 0 11.412 0.25425 11.412 0.566437V1.98562C11.412 2.29837 11.6229 2.68031 11.889 2.84287L12.9049 3.46275C13.1681 3.62363 13.6091 3.64725 13.8881 3.51619L15.4384 2.78944C15.5781 2.72656 15.736 2.71654 15.8825 2.76123C16.0291 2.80592 16.1545 2.90229 16.2354 3.03244L17.9111 5.80556C17.9871 5.93514 18.0115 6.08855 17.9795 6.23529C17.9475 6.38203 17.8614 6.51136 17.7384 6.59756L16.5307 7.41037C16.2748 7.5825 16.0678 7.97906 16.0678 8.28225V9.74475C16.0678 10.0541 16.2664 10.4636 16.5032 10.6526L17.7851 11.6753C18.0259 11.8671 18.0731 12.2243 17.8869 12.4796L16.0807 14.9512C15.8962 15.2032 15.5227 15.282 15.2578 15.1335L13.9809 14.418C13.7109 14.2661 13.2846 14.2819 13.0196 14.4579L11.8839 15.2139C11.6235 15.3878 11.412 15.7838 11.412 16.0892V17.4392C11.412 17.7486 11.1645 18 10.8467 18H7.36481C7.2157 17.9999 7.07267 17.9409 6.96682 17.8359C6.86096 17.7308 6.80083 17.5883 6.7995 17.4392V16.0892C6.7995 15.7798 6.59025 15.3804 6.33656 15.2004L5.30775 14.472C5.05237 14.2909 4.63387 14.2751 4.37175 14.4382L2.7405 15.4552C2.67832 15.4938 2.60911 15.5197 2.53687 15.5314C2.46463 15.5431 2.39079 15.5404 2.31961 15.5234C2.24843 15.5064 2.18132 15.4755 2.12216 15.4324C2.063 15.3893 2.01296 15.335 1.97493 15.2724L0.173808 12.3317C0.096493 12.2033 0.0719335 12.05 0.105288 11.9038C0.138642 11.7577 0.227315 11.6302 0.352683 11.5481L1.79606 10.611C2.0565 10.4423 2.26743 10.0541 2.26743 9.74531V8.34244C2.26743 8.03306 2.0475 7.65281 1.78368 7.497L0.272808 6.60375C0.209484 6.56661 0.154128 6.51731 0.109927 6.45869C0.0657255 6.40008 0.0335507 6.3333 0.0152535 6.2622C-0.00304367 6.1911 -0.00710212 6.11709 0.00331169 6.04442C0.0137255 5.97174 0.038406 5.90185 0.0759333 5.83875L1.84218 2.8935C1.99968 2.62913 2.35237 2.53013 2.62575 2.67019L4.4865 3.62644C4.761 3.76706 5.17837 3.72488 5.42362 3.52631L6.36018 2.76975C6.60318 2.574 6.7995 2.16562 6.7995 1.85456V0.56025ZM9.00112 12.375C10.8742 12.375 12.3919 10.8641 12.3919 9C12.3919 7.13588 10.8737 5.625 9.00112 5.625C7.12856 5.625 5.61093 7.13588 5.61093 9C5.61093 10.8641 7.12856 12.375 9.00112 12.375Z" fill="white"/>
</g>
<defs>
<clipPath id="clip0_303_405">
<rect width="18" height="18" fill="white"/>
</clipPath>
</defs>
</svg>
