<?xml version="1.0" encoding="UTF-8"?>
<!DOCTYPE svg PUBLIC "-//W3C//DTD SVG 1.1//EN" "http://www.w3.org/Graphics/SVG/1.1/DTD/svg11.dtd">
<!-- Creator: CorelDRAW 2021 (64-Bit) -->
<svg xmlns="http://www.w3.org/2000/svg" xml:space="preserve" width="565.125mm" height="266.347mm" version="1.1" style="shape-rendering:geometricPrecision; text-rendering:geometricPrecision; image-rendering:optimizeQuality; fill-rule:evenodd; clip-rule:evenodd"
viewBox="0 0 56512.5 26634.7"
 xmlns:xlink="http://www.w3.org/1999/xlink"
 xmlns:xodm="http://www.corel.com/coreldraw/odm/2003">
 <defs>
  <style type="text/css">
   <![CDATA[
    .str0 {stroke:#FEFEFE;stroke-width:7.62;stroke-miterlimit:22.9256}
    .fil1 {fill:#FEFEFE}
    .fil0 {fill:#509FE4}
   ]]>
  </style>
 </defs>
 <g id="Capa_x0020_1">
  <metadata id="CorelCorpID_0Corel-Layer"/>
  <path class="fil0" d="M26074.11 5894.27c-12.86,194.69 -9.62,344.44 -11.35,536.39 -5.51,606.02 -29.21,453.86 -145.87,599.09 -389.2,-263.96 -145.76,-1238.63 -0.45,-1467.4 412.6,-101.42 1086.11,-178.75 1363.26,79.54 -321.38,428.22 -477.29,-39.5 -1205.59,252.38zm-945.91 142.1c0,4476.89 -725.56,3774.47 3944.58,3772.1 674.88,-0.51 984.83,-108.3 984.83,-813.46 0.44,-4890.44 752.45,-4111.51 -3746.24,-4110.56 -1065.34,0.42 -1183.17,32.41 -1183.17,1151.92z"/>
  <path class="fil0" d="M26410 19055.36c1108.61,-54.91 801.52,17.86 884.52,234.66 -252.72,115.99 -248.61,75.87 -588.22,78.86 -1257,11.1 -250.54,629.4 -789.41,1222.25 -324.68,-222.77 -181.86,-1167.82 -46.3,-1482.29l539.41 -53.48zm-1249.74 3845.28c175.65,685.78 1295.25,461.83 1940.08,461.64 3182.42,-0.84 2958.78,363.48 2957.94,-1940.97 -1.2,-3206.22 365.04,-2985.79 -1971.72,-2983.33 -518.78,0.53 -2053.63,-64.57 -2454.82,30.64 -710.8,168.69 -503.68,1187.4 -503.54,1966.47 0.08,490.17 -61.42,2100.42 32.06,2465.55z"/>
  <path class="fil0" d="M19112.01 20588.62c-273.91,-271.84 -189.43,-1084.26 -30.83,-1369.55 255.88,-211.35 1073.92,-254.88 1408.04,-66.06 -172.65,397.03 -52.3,156.3 -1158.71,235.89 -114.42,527.8 82.53,959.94 -218.5,1199.72zm-411.76 -2064.67c-559.36,310.25 -344.86,1460.74 -344.86,2108.39 0.06,3072.59 -322.47,2730.21 2137.33,2729.91 3122.68,-0.37 2785.51,301.33 2785.26,-2138.2 -0.31,-3108.9 327.36,-2787.83 -2193.55,-2785.95 -520.34,0.39 -2030.76,-110.21 -2384.18,85.85z"/>
  <path class="fil0" d="M19112.01 13813.71c-286.52,-315.2 -193.37,-1263.51 23.57,-1443.32 47.05,-39 1093.54,-310.06 1367.34,76.37 -125.66,99.16 49.43,81.69 -301.92,142.18l-846.16 16.78c-267.12,745.16 177.46,874.29 -242.83,1207.99zm-742.33 2282.03c121.58,692.72 1299.32,492.22 1925.78,491.97 3199.29,-1.21 2983.36,375.52 2982.52,-1971.28 -1.12,-3234.61 326.72,-2957.8 -1996.29,-2957.46 -3218.77,0.45 -2926.47,-312.8 -2926.33,1971.24 0.06,584.7 -72.18,1972.7 14.32,2465.53z"/>
  <path class="fil0" d="M25744.6 13334.36c0.92,-558.92 -106.52,-957.8 389.06,-1050.13 121.6,-22.68 538.28,-19.91 678.82,-16.83 496.52,10.9 318.55,-68.75 463.84,179.36 -717.37,642.84 -1219.68,-736.72 -1215.66,1084.82 0.76,343.36 -99.46,234.83 -143.77,275.48 -153.98,-84.76 -173.69,123.12 -172.29,-472.7zm-593.03 2761.38c149.34,686.34 1289.57,491.57 1948.77,491.32 3173.25,-1.28 2958.22,346.79 2957.29,-1970.63 -1.31,-3181.89 345.99,-2957.77 -1971.07,-2956.85 -513.72,0.23 -2046.47,-65.33 -2445.04,26.59 -716.56,165.27 -512.99,1249.9 -512.71,1944.04 0.23,527.53 -67.7,2049.94 22.76,2465.53z"/>
  <path class="fil0" d="M32761.18 13822.21c-354.62,-139.19 -249.39,-89.88 -241.29,-685.33 3.97,-290.32 -50.96,-556.07 150.94,-740.8 125.99,-115.32 1144.87,-313.25 1391.32,50.68 -339.29,312.85 -701.77,27.96 -1120.8,203.83 -254.51,212.88 38.97,698.61 -180.17,1171.62zm-851.37 5.26c3.75,3266.21 -609.77,2747.66 3773.67,2762.95 1489.51,5.2 1149.51,-310.23 1147.86,-3847.8 -0.73,-763.87 7.29,-1054.44 -847.73,-1086.56 -667.28,-25.07 -1402.9,3.38 -2078.4,3.08 -2262.93,-1.04 -1998.64,-61.45 -1995.4,2168.33z"/>
  <path class="fil0" d="M32916.39 19445.37c-160.72,355.15 -32.04,479.61 -72.52,796.4l-77.41 265.5c-8.22,22.59 -29.63,52.92 -44.7,79.22 -265.1,-168.62 -202.01,-45.84 -206.28,-540.66 -7.64,-883.18 10.06,-984.01 898.05,-997.21 722.46,-10.73 538.79,41.96 641.78,203.02 -476.29,275.56 -680.64,-12.47 -1138.92,193.73zm3861.58 3553.87c103.66,-263.79 53.51,-1948.4 53.62,-2366.9 0.59,-2537.12 282.16,-2194.55 -2729.12,-2193.94 -2519.4,0.53 -2190.84,-320.03 -2192.63,2785.65 -1.4,2433.63 -339.83,2137.05 2784.34,2137.41 659.36,0.09 1864.23,196.62 2083.79,-362.22z"/>
  <path class="fil0" d="M19112.01 7031.04c-89.18,-103.19 -167.26,94.99 -158.45,-699.23 6.29,-568.2 43.11,-1044.93 1247.38,-843.18 437.6,73.33 146.35,18.9 301.76,153.26 -229.46,289.14 -838,160.97 -1215.15,175.53 -13.9,376.45 116.68,999.28 -175.54,1213.62zm-286.8 -2112.03c-665.37,193.28 -469.96,820.44 -469.82,2004.96 0.42,3179.74 -323.64,2885.17 2038.7,2884.78 3174.93,-0.56 2884.05,332.98 2883.89,-2095.82 -0.23,-3119.19 314.05,-2829.68 -2094.92,-2828.53 -480.31,0.25 -2022.74,-62.71 -2357.85,34.61z"/>
  <path class="fil0" d="M32623.13 7019.6c-162.56,-280.7 -197.67,-1231.36 54.18,-1426.47 270.36,-209.39 1165.2,-173.18 1383.2,48.76 -240.65,296.55 -676.53,107.21 -1203.25,216.68 -71.87,1128.07 156.83,994.72 -234.13,1161.03zm4173.26 2369.89c68.66,-175.22 35.2,-2016.75 35.2,-2366.9 0.03,-2458.84 346.18,-2137.24 -2729.12,-2137.41 -2591,-0.17 -2189.61,-213.13 -2192.49,2729.12 -2.49,2515.27 -330.74,2193.78 2784.2,2194 672,0.03 1850.5,223.7 2102.21,-418.81z"/>
  <path class="fil1" d="M25744.6 13334.36c-1.4,595.82 18.31,387.94 172.29,472.7 44.31,-40.65 144.53,67.88 143.77,-275.48 -4.02,-1821.54 498.29,-441.98 1215.66,-1084.82 -145.29,-248.11 32.68,-168.46 -463.84,-179.36 -140.54,-3.08 -557.22,-5.85 -678.82,16.83 -495.58,92.33 -388.14,491.21 -389.06,1050.13z"/>
  <path class="fil1 str0" d="M25870.59 19108.84c-135.56,314.47 -278.38,1259.52 46.3,1482.29 538.87,-592.85 -467.59,-1211.15 789.41,-1222.25 339.61,-2.99 335.5,37.13 588.22,-78.86 -83,-216.8 224.09,-289.57 -884.52,-234.66l-539.41 53.48z"/>
  <path class="fil1" d="M19112.01 7031.04c292.22,-214.34 161.64,-837.17 175.54,-1213.62 377.15,-14.56 985.69,113.61 1215.15,-175.53 -155.41,-134.36 135.84,-79.93 -301.76,-153.26 -1204.27,-201.75 -1241.09,274.98 -1247.38,843.18 -8.81,794.22 69.27,596.04 158.45,699.23z"/>
  <path class="fil1 str0" d="M32623.13 7019.6c390.96,-166.31 162.26,-32.96 234.13,-1161.03 526.72,-109.47 962.6,79.87 1203.25,-216.68 -218,-221.94 -1112.84,-258.15 -1383.2,-48.76 -251.85,195.11 -216.74,1145.77 -54.18,1426.47z"/>
  <path class="fil1" d="M32761.18 13822.21c219.14,-473.01 -74.34,-958.74 180.17,-1171.62 419.03,-175.87 781.51,109.02 1120.8,-203.83 -246.45,-363.93 -1265.33,-166 -1391.32,-50.68 -201.9,184.73 -146.97,450.48 -150.94,740.8 -8.1,595.45 -113.33,546.14 241.29,685.33z"/>
  <path class="fil1" d="M19112.01 13813.71c420.29,-333.7 -24.29,-462.83 242.83,-1207.99l846.16 -16.78c351.35,-60.49 176.26,-43.02 301.92,-142.18 -273.8,-386.43 -1320.29,-115.37 -1367.34,-76.37 -216.94,179.81 -310.09,1128.12 -23.57,1443.32z"/>
  <path class="fil1" d="M32916.39 19445.37c458.28,-206.2 662.63,81.83 1138.92,-193.73 -102.99,-161.06 80.68,-213.75 -641.78,-203.02 -887.99,13.2 -905.69,114.03 -898.05,997.21 4.27,494.82 -58.82,372.04 206.28,540.66 15.07,-26.3 36.48,-56.63 44.7,-79.22l77.41 -265.5c40.48,-316.79 -88.2,-441.25 72.52,-796.4z"/>
  <path class="fil1 str0" d="M26074.11 5894.27c728.3,-291.88 884.21,175.84 1205.59,-252.38 -277.15,-258.29 -950.66,-180.96 -1363.26,-79.54 -145.31,228.77 -388.75,1203.44 0.45,1467.4 116.66,-145.23 140.36,6.93 145.87,-599.09 1.73,-191.95 -1.51,-341.7 11.35,-536.39z"/>
  <path class="fil1" d="M19112.01 20588.62c301.03,-239.78 104.08,-671.92 218.5,-1199.72 1106.41,-79.59 986.06,161.14 1158.71,-235.89 -334.12,-188.82 -1152.16,-145.29 -1408.04,66.06 -158.6,285.29 -243.08,1097.71 30.83,1369.55z"/>
 </g>
</svg>
