<svg width="18" height="18" viewBox="0 0 18 18" fill="none" xmlns="http://www.w3.org/2000/svg">
<path d="M6.23081 6.23081H11.7692V11.7692H6.23081V6.23081V6.23081ZM12.4616 12.4616H18V18H12.4616V12.4616ZM6.23081 12.4616H11.7692V18H6.23081V12.4616V12.4616ZM0 12.4616H5.53837V18H0V12.4616ZM0 0H5.53837V5.53837H0V0ZM0 6.23081H5.53837V11.7692H0V6.23081V6.23081ZM12.4616 0H18V5.53837H12.4616V0ZM12.4616 6.23081H18V11.7692H12.4616V6.23081V6.23081ZM6.23081 0H11.7692V5.53837H6.23081V0V0Z" fill="#509EE3"/>
</svg>
